<svg width="40" height="40" viewBox="0 0 40 40" fill="none" xmlns="http://www.w3.org/2000/svg">
<g clip-path="url(#clip0_0_46)">
<path d="M-0.116211 0.00805664H79.6116V39.9868H-0.116211V0.00805664Z" fill="#006400"/>
<path d="M-0.116211 5.71924H79.6116V34.2755H-0.116211V5.71924Z" fill="#FFD200"/>
<path d="M-0.116211 11.4307H79.6116V28.5645H-0.116211V11.4307Z" fill="#D40000"/>
<path d="M-0.116211 17.1418H79.6116V22.8531H-0.116211V17.1418Z" fill="black"/>
<path d="M-0.116211 0.00805664V39.9868L26.4597 19.9974L-0.116211 0.00805664Z" fill="black"/>
<path fill-rule="evenodd" clip-rule="evenodd" d="M-1.0672 -1.89612L28.0405 19.9976L-1.0672 41.8912V-1.89612ZM0.833814 1.91248V38.0826L24.878 19.9976L0.833814 1.91248Z" fill="black"/>
<path d="M-0.116211 0.00805664V39.9868L26.4597 19.9974L-0.116211 0.00805664Z" fill="white"/>
<path d="M9.99212 9.94556L15.2599 26.1941L1.47833 16.1518H18.5154L4.72439 26.1941L9.99212 9.94556Z" fill="#D40000"/>
<path d="M7.74268 24.1571L8.67284 23.9858L10.3908 23.9191L11.0267 23.9763L12.4504 24.2142L12.5548 24.0714V23.0434L12.7257 22.1582L13.0104 21.2634L13.3236 20.5495L13.7223 19.807L14.3677 19.9689H14.5385L14.5575 19.8451L13.1907 18.6743L11.767 17.5797L9.7074 16.0376L9.51757 15.99L9.29927 14.3718L9.13792 13.8864L8.91962 13.696L8.51149 13.5627L8.0559 13.5818L7.84709 13.696L7.41048 13.7912L7.18269 13.8293L7.03083 14.0101L7.01184 14.2386L7.64777 14.2576L7.80912 14.3242L7.79014 14.3909L7.42947 14.4385L7.25862 14.4956L7.45794 14.6479L7.66675 14.724L7.93251 14.8192L7.98946 15.0096L8.00844 17.4654L7.86607 17.8462L7.81861 18.5601L8.02742 19.4168L7.4959 20.026L7.19218 20.5685L7.13523 20.9017L6.97388 21.2349L6.9549 21.4443L7.0593 21.6727L7.46743 23.0244L7.67624 24.1381L7.74268 24.1571Z" fill="#FFCC00"/>
<path d="M8.23631 13.5248C8.06546 13.5248 7.98953 13.5439 7.82818 13.6295C7.69448 13.7063 7.54524 13.7519 7.39157 13.7628C7.15429 13.7628 6.96446 13.9341 6.96446 14.1531V14.2959L7.30615 14.2863C8.31224 14.3149 7.40106 14.4101 7.32513 14.4196C7.07836 14.4672 7.38208 14.6671 7.67631 14.7718C7.98953 14.867 7.97055 14.8099 7.97055 16.1996C7.97055 17.3323 7.97055 17.4942 7.87563 17.7512C7.75224 18.1319 7.75224 18.703 7.87563 19.0838C7.93258 19.2361 7.97055 19.3694 7.97055 19.3979C7.97055 19.4169 7.81868 19.5978 7.63835 19.8072C7.30615 20.188 7.10683 20.5782 7.10683 20.8543C7.09499 20.9431 7.06247 21.0279 7.01192 21.1018C6.88853 21.2636 6.88853 21.5396 7.00242 21.6443C7.12581 21.7586 7.62886 23.7194 7.63835 24.0907C7.63835 24.2239 7.65733 24.2239 8.42613 24.0716C9.05257 23.9479 10.5237 23.9193 11.2736 24.0145C11.6152 24.0621 12.0139 24.1382 12.1563 24.1668C12.6118 24.2905 12.5929 24.3096 12.5929 23.7575C12.5964 22.8876 12.7605 22.0259 13.0769 21.216C13.2583 20.7545 13.4773 20.3087 13.7318 19.8834C13.7318 19.8834 13.9027 19.9024 14.1115 19.9595C14.5006 20.0547 14.6145 20.0452 14.6145 19.8643C14.6145 19.7691 14.2064 19.4265 12.2037 17.8654C11.396 17.2024 10.5633 16.5705 9.70747 15.9712C9.65053 15.9712 9.59358 15.9426 9.58409 15.9045L9.44172 15.0002C9.37528 14.5338 9.28036 14.0769 9.2424 13.9817C9.10952 13.6962 8.85325 13.5534 8.42613 13.5248C8.36287 13.5228 8.29957 13.5228 8.23631 13.5248ZM8.2458 13.62H8.43563C9.06206 13.6581 9.17596 13.8294 9.3468 14.9527C9.39291 15.2498 9.43089 15.5482 9.4607 15.8474C9.4607 15.9236 9.37528 16.0188 9.15697 16.1615C8.79779 16.4143 8.47794 16.719 8.20783 17.0658L8.08444 17.2372L8.05597 16.8374V15.7142C8.08444 14.886 8.05597 14.8099 7.79021 14.7147C7.57191 14.6385 7.28717 14.5624 7.3631 14.5148C7.45801 14.4577 7.55292 14.4958 7.78072 14.4291C7.87563 14.4101 7.86614 14.4196 7.84716 14.3435C7.82818 14.2197 7.6953 14.1531 7.34411 14.1721C7.05937 14.1912 7.0309 14.1816 7.04988 14.1055C7.08785 13.9532 7.23971 13.858 7.47699 13.8294C7.62226 13.8126 7.76354 13.7707 7.89462 13.7057C8.00057 13.6418 8.12219 13.6089 8.2458 13.6105V13.62ZM9.66002 16.0759H9.69798C9.85934 16.1044 14.5196 19.7596 14.5196 19.8643C14.5196 19.9024 14.4817 19.931 14.4247 19.931C14.3867 19.931 13.2003 19.5978 11.7956 19.1885C9.55561 18.5222 9.2329 18.427 9.13799 18.3033C9.07196 18.2196 9.03525 18.1165 9.03354 18.0098C9.03182 17.9031 9.0652 17.7988 9.1285 17.7131C9.17406 17.6576 9.20651 17.5925 9.22341 17.5227C9.22341 17.4085 8.98613 17.6941 8.93867 17.8559C8.89121 18.0462 8.98613 18.3699 9.1285 18.4746C9.18545 18.5222 9.61256 18.665 10.0776 18.8077C10.8749 19.0362 10.9319 19.0648 10.9698 19.198C11.0647 19.5121 10.7325 19.8834 10.258 19.9881C10.08 20.0308 9.91229 20.1084 9.76442 20.2165C9.27199 20.6256 8.72184 20.9592 8.1319 21.2065C8.09394 21.235 8.04648 21.3873 8.018 21.5301C7.96106 21.8442 7.94207 21.8918 7.84716 21.8918C7.7997 21.8918 7.79021 21.8633 7.82818 21.7586C7.89462 21.5682 7.88512 21.3397 7.81868 21.3397C7.77123 21.3397 7.75224 21.4064 7.75224 21.5111C7.75224 21.6063 7.72377 21.7205 7.6858 21.749C7.63835 21.8062 7.62886 21.7681 7.64784 21.5301C7.66682 21.3683 7.65733 21.2445 7.63835 21.2445C7.59089 21.2445 7.50547 21.4825 7.47699 21.6919C7.45801 21.8157 7.45801 21.8157 7.42005 21.6634C7.39157 21.5491 7.40106 21.473 7.48649 21.3302C7.54042 21.2268 7.57272 21.1134 7.5814 20.9971C7.5814 20.8733 7.67631 20.7496 8.12241 20.3022C8.40715 20.0071 8.75833 19.6359 8.88172 19.4741C9.10002 19.2075 9.10952 19.1885 9.10002 18.9125C9.10002 18.7602 9.08104 18.6174 9.06206 18.5983C9.00511 18.5412 8.92918 18.8458 8.96714 19.0076C8.98613 19.1599 8.96714 19.2075 8.65393 19.5788C8.42858 19.8375 8.19102 20.0853 7.94207 20.3212C7.57191 20.6639 7.43903 20.8543 7.43903 21.0256C7.43903 21.0827 7.40106 21.216 7.34411 21.3397C7.28717 21.4635 7.26818 21.5872 7.28717 21.6158C7.30615 21.6443 7.28717 21.6443 7.25869 21.6158C7.21123 21.5682 7.21123 21.492 7.2492 21.3302C7.27093 21.2496 7.27737 21.1657 7.26818 21.0827C7.22073 20.9875 7.15429 21.1018 7.12581 21.3397C7.10683 21.473 7.07835 21.5777 7.04988 21.5587C6.98344 21.5206 7.00242 21.2731 7.08785 21.1398C7.1353 21.0732 7.18276 20.9209 7.21123 20.7972C7.27767 20.445 7.42954 20.1594 7.76174 19.7787C7.86813 19.6625 7.96946 19.5419 8.06546 19.4169L7.97055 19.1028C7.84325 18.6784 7.83668 18.2267 7.95156 17.7988C8.07495 17.437 8.32173 17.0753 8.71088 16.6851C9.09053 16.3138 9.4607 16.0854 9.66002 16.0759ZM11.0837 19.1409C11.0957 19.14 11.1079 19.1408 11.1193 19.1433C11.1308 19.1458 11.1414 19.1498 11.1504 19.1552C11.1593 19.1606 11.1665 19.1672 11.1714 19.1746C11.1762 19.182 11.1787 19.19 11.1786 19.198C11.1728 19.2092 11.1619 19.2189 11.1475 19.2258C11.133 19.2327 11.1157 19.2364 11.098 19.2364C11.0802 19.2364 11.0629 19.2327 11.0485 19.2258C11.034 19.2189 11.0231 19.2092 11.0173 19.198C11.0168 19.1848 11.0231 19.1719 11.0353 19.1615C11.0474 19.1511 11.0645 19.1438 11.0837 19.1409ZM11.321 19.1695C11.333 19.1686 11.3451 19.1694 11.3566 19.1718C11.3681 19.1743 11.3787 19.1784 11.3877 19.1838C11.3966 19.1892 11.4038 19.1958 11.4086 19.2031C11.4135 19.2105 11.416 19.2185 11.4159 19.2266C11.4101 19.2378 11.3992 19.2475 11.3847 19.2544C11.3703 19.2612 11.353 19.2649 11.3353 19.2649C11.3175 19.2649 11.3002 19.2612 11.2858 19.2544C11.2713 19.2475 11.2604 19.2378 11.2546 19.2266C11.2541 19.2134 11.2604 19.2005 11.2725 19.1901C11.2847 19.1797 11.3018 19.1724 11.321 19.1695ZM11.5678 19.2171C11.5798 19.2162 11.5919 19.217 11.6034 19.2194C11.6149 19.2219 11.6255 19.226 11.6344 19.2314C11.6434 19.2368 11.6506 19.2434 11.6554 19.2507C11.6603 19.2581 11.6628 19.2661 11.6627 19.2742C11.6569 19.2854 11.646 19.2951 11.6315 19.3019C11.6171 19.3088 11.5998 19.3125 11.582 19.3125C11.5643 19.3125 11.547 19.3088 11.5325 19.3019C11.5181 19.2951 11.5072 19.2854 11.5014 19.2742C11.5009 19.261 11.5072 19.2481 11.5193 19.2377C11.5314 19.2273 11.5486 19.22 11.5678 19.2171ZM11.7956 19.2646C11.8076 19.2638 11.8197 19.2646 11.8312 19.267C11.8427 19.2695 11.8533 19.2736 11.8622 19.279C11.8712 19.2844 11.8783 19.291 11.8832 19.2983C11.8881 19.3057 11.8906 19.3137 11.8905 19.3218C11.8847 19.333 11.8738 19.3427 11.8593 19.3495C11.8449 19.3564 11.8276 19.3601 11.8098 19.3601C11.7921 19.3601 11.7748 19.3564 11.7603 19.3495C11.7459 19.3427 11.735 19.333 11.7291 19.3218C11.7287 19.3086 11.735 19.2957 11.7471 19.2853C11.7592 19.2749 11.7763 19.2676 11.7956 19.2646ZM11.1976 19.3218C11.2096 19.3209 11.2218 19.3217 11.2332 19.3241C11.2447 19.3266 11.2553 19.3307 11.2643 19.3361C11.2732 19.3415 11.2804 19.3481 11.2853 19.3554C11.2901 19.3628 11.2926 19.3708 11.2925 19.3789C11.2867 19.3901 11.2758 19.3998 11.2614 19.4067C11.2469 19.4135 11.2296 19.4172 11.2119 19.4172C11.1941 19.4172 11.1768 19.4135 11.1624 19.4067C11.1479 19.3998 11.137 19.3901 11.1312 19.3789C11.1307 19.3657 11.137 19.3528 11.1492 19.3424C11.1613 19.332 11.1784 19.3247 11.1976 19.3218ZM11.4254 19.3598C11.4374 19.3589 11.4495 19.3598 11.461 19.3622C11.4725 19.3647 11.4831 19.3687 11.4921 19.3741C11.501 19.3795 11.5082 19.3861 11.5131 19.3935C11.5179 19.4009 11.5204 19.4089 11.5203 19.4169C11.5145 19.4281 11.5036 19.4379 11.4891 19.4447C11.4747 19.4516 11.4574 19.4553 11.4397 19.4553C11.4219 19.4553 11.4046 19.4516 11.3902 19.4447C11.3757 19.4379 11.3648 19.4281 11.359 19.4169C11.3585 19.4038 11.3648 19.3909 11.3769 19.3805C11.3891 19.37 11.4062 19.3628 11.4254 19.3598ZM11.919 19.3789C11.931 19.378 11.9431 19.3788 11.9546 19.3813C11.9661 19.3837 11.9766 19.3878 11.9856 19.3932C11.9946 19.3986 12.0017 19.4052 12.0066 19.4126C12.0115 19.4199 12.014 19.4279 12.0139 19.436C12.0081 19.4472 11.9972 19.4569 11.9827 19.4638C11.9682 19.4706 11.9509 19.4743 11.9332 19.4743C11.9155 19.4743 11.8982 19.4706 11.8837 19.4638C11.8693 19.4569 11.8584 19.4472 11.8525 19.436C11.852 19.4228 11.8584 19.4099 11.8705 19.3995C11.8826 19.3891 11.8997 19.3818 11.919 19.3789ZM11.6627 19.3789C11.6747 19.378 11.6868 19.3788 11.6983 19.3813C11.7098 19.3837 11.7204 19.3878 11.7293 19.3932C11.7383 19.3986 11.7455 19.4052 11.7503 19.4126C11.7552 19.4199 11.7577 19.4279 11.7576 19.436C11.7518 19.4472 11.7409 19.4569 11.7264 19.4638C11.712 19.4706 11.6947 19.4743 11.6769 19.4743C11.6592 19.4743 11.6419 19.4706 11.6274 19.4638C11.613 19.4569 11.6021 19.4472 11.5963 19.436C11.5958 19.4228 11.6021 19.4099 11.6142 19.3995C11.6263 19.3891 11.6435 19.3818 11.6627 19.3789ZM12.1373 19.436C12.1468 19.436 12.4885 19.5121 12.8966 19.6264L13.6464 19.8453L13.504 20.1023C13.4245 20.2399 13.3485 20.3796 13.2762 20.5211C13.1813 20.7115 13.1623 20.7115 12.7068 20.6068C12.2132 20.4926 11.4349 20.3879 10.6376 20.3212L9.87832 20.2546L10.1631 20.1499C10.335 20.0835 10.503 20.0072 10.6661 19.9214C10.8559 19.8167 10.9319 19.7977 11.2261 19.8263C11.6532 19.8548 11.938 19.7691 12.0519 19.5978L12.1468 19.436H12.1373ZM11.302 19.4931C11.314 19.4922 11.3262 19.493 11.3376 19.4955C11.3491 19.4979 11.3597 19.502 11.3687 19.5074C11.3776 19.5128 11.3848 19.5194 11.3897 19.5268C11.3945 19.5342 11.397 19.5421 11.3969 19.5502C11.3911 19.5614 11.3802 19.5711 11.3658 19.578C11.3513 19.5849 11.334 19.5886 11.3163 19.5886C11.2985 19.5886 11.2812 19.5849 11.2668 19.578C11.2523 19.5711 11.2414 19.5614 11.2356 19.5502C11.2351 19.537 11.2414 19.5241 11.2536 19.5137C11.2657 19.5033 11.2828 19.496 11.302 19.4931ZM11.8335 19.4931C11.8455 19.4922 11.8577 19.493 11.8692 19.4955C11.8806 19.4979 11.8912 19.502 11.9002 19.5074C11.9092 19.5128 11.9163 19.5194 11.9212 19.5268C11.9261 19.5342 11.9285 19.5421 11.9285 19.5502C11.9213 19.5595 11.9104 19.5674 11.897 19.5728C11.8836 19.5783 11.8682 19.5812 11.8525 19.5812C11.8368 19.5812 11.8215 19.5783 11.8081 19.5728C11.7947 19.5674 11.7838 19.5595 11.7766 19.5502C11.7761 19.537 11.7825 19.5241 11.7946 19.5137C11.8067 19.5033 11.8238 19.496 11.843 19.4931H11.8335ZM11.0742 19.4931C11.0862 19.4922 11.0984 19.493 11.1098 19.4955C11.1213 19.4979 11.1319 19.502 11.1409 19.5074C11.1498 19.5128 11.157 19.5194 11.1619 19.5268C11.1667 19.5342 11.1692 19.5421 11.1692 19.5502C11.1633 19.5614 11.1524 19.5711 11.138 19.578C11.1235 19.5849 11.1062 19.5886 11.0885 19.5886C11.0707 19.5886 11.0534 19.5849 11.039 19.578C11.0245 19.5711 11.0136 19.5614 11.0078 19.5502C11.0103 19.5387 11.018 19.528 11.0299 19.5195C11.0418 19.511 11.0572 19.5051 11.0742 19.5026V19.4931ZM11.5773 19.5121C11.5992 19.5103 11.6214 19.5142 11.6391 19.5231C11.6568 19.532 11.6687 19.5451 11.6722 19.5597C11.6664 19.5709 11.6555 19.5806 11.641 19.5875C11.6266 19.5944 11.6093 19.5981 11.5915 19.5981C11.5738 19.5981 11.5565 19.5944 11.542 19.5875C11.5276 19.5806 11.5167 19.5709 11.5108 19.5597C11.5133 19.5482 11.5211 19.5375 11.5329 19.529C11.5448 19.5205 11.5603 19.5146 11.5773 19.5121ZM10.9508 19.6168C10.9628 19.6159 10.975 19.6168 10.9865 19.6192C10.9979 19.6217 11.0085 19.6258 11.0175 19.6312C11.0265 19.6365 11.0336 19.6431 11.0385 19.6505C11.0434 19.6579 11.0458 19.6659 11.0458 19.674C11.0399 19.6852 11.029 19.6949 11.0146 19.7017C11.0001 19.7086 10.9828 19.7123 10.9651 19.7123C10.9473 19.7123 10.9301 19.7086 10.9156 19.7017C10.9011 19.6949 10.8902 19.6852 10.8844 19.674C10.8839 19.6608 10.8903 19.6479 10.9024 19.6375C10.9145 19.6271 10.9316 19.6198 10.9508 19.6168ZM11.1881 19.6168C11.2014 19.6157 11.2149 19.6167 11.2275 19.6197C11.2402 19.6227 11.2516 19.6276 11.2608 19.6341C11.27 19.6406 11.2769 19.6484 11.2807 19.657C11.2846 19.6656 11.2854 19.6747 11.283 19.6835C11.2772 19.6947 11.2663 19.7044 11.2519 19.7113C11.2374 19.7181 11.2201 19.7218 11.2024 19.7218C11.1846 19.7218 11.1673 19.7181 11.1529 19.7113C11.1384 19.7044 11.1275 19.6947 11.1217 19.6835C11.1212 19.6703 11.1276 19.6574 11.1397 19.647C11.1518 19.6366 11.1689 19.6293 11.1881 19.6264V19.6168ZM11.4349 19.6359C11.4569 19.634 11.479 19.638 11.4967 19.6469C11.5144 19.6557 11.5263 19.6689 11.5298 19.6835C11.524 19.6947 11.5131 19.7044 11.4986 19.7113C11.4842 19.7181 11.4669 19.7218 11.4491 19.7218C11.4314 19.7218 11.4141 19.7181 11.3997 19.7113C11.3852 19.7044 11.3743 19.6947 11.3685 19.6835C11.371 19.672 11.3787 19.6612 11.3906 19.6527C11.4024 19.6442 11.4179 19.6383 11.4349 19.6359ZM11.7007 19.6359C11.7127 19.635 11.7248 19.6358 11.7363 19.6383C11.7478 19.6407 11.7583 19.6448 11.7673 19.6502C11.7763 19.6556 11.7834 19.6622 11.7883 19.6696C11.7932 19.6769 11.7957 19.6849 11.7956 19.693C11.7898 19.7042 11.7789 19.7139 11.7644 19.7208C11.7499 19.7276 11.7326 19.7313 11.7149 19.7313C11.6972 19.7313 11.6799 19.7276 11.6654 19.7208C11.651 19.7139 11.6401 19.7042 11.6342 19.693C11.6337 19.6798 11.6401 19.6669 11.6522 19.6565C11.6643 19.6461 11.6814 19.6388 11.7007 19.6359ZM9.77391 20.4069C10.8943 20.4367 12.0096 20.5705 13.1054 20.8067C13.1149 20.8162 13.0484 21.0447 12.944 21.3207L12.7542 21.8918C12.7447 21.9394 12.6783 21.9394 12.5169 21.9204C11.7291 21.7966 9.45121 21.8062 8.578 21.9394C8.07495 22.0156 8.00851 22.006 8.04648 21.9013L8.14139 21.5682L8.19834 21.3112L8.71088 21.0447C9.05251 20.8698 9.37669 20.6626 9.679 20.4259H9.76442L9.77391 20.4069ZM7.21123 21.7586C7.23971 21.7586 7.29666 21.7871 7.3631 21.8347C7.45801 21.8918 7.57191 21.9394 7.61937 21.9394C7.86614 21.9394 7.99902 22.2916 8.20783 23.4624L8.28376 23.8812C8.30275 23.9764 8.28376 23.9955 8.06546 24.0431C7.7997 24.1002 7.73326 24.1097 7.73326 24.0716C7.73326 23.9764 7.4675 22.7675 7.35361 22.3392C7.29691 22.1505 7.24627 21.96 7.20174 21.7681C7.20319 21.7672 7.20482 21.7668 7.20649 21.7668C7.20816 21.7668 7.20979 21.7672 7.21123 21.7681V21.7586ZM9.92578 21.9489H10.201L10.1061 22.0441C9.94476 22.2345 9.86883 22.244 9.75493 22.1203C9.71493 22.0788 9.68277 22.0305 9.66002 21.9775C9.66002 21.9585 9.78341 21.9394 9.92578 21.9394V21.9489ZM10.5048 21.9489H11.0173L10.9034 22.0632C10.7705 22.2155 10.761 22.2155 10.6186 22.0632L10.5048 21.9394V21.9489ZM11.283 21.9489H11.4064C11.4729 21.9489 11.5963 21.9489 11.6722 21.968L11.8146 21.9965L11.6817 22.1203C11.6058 22.1869 11.5393 22.244 11.5298 22.2345L11.3969 22.0822L11.283 21.9394V21.9489ZM12.0898 21.9775L12.2037 22.006C12.2702 22.0251 12.4125 22.0346 12.5169 22.0441H12.7068L12.5644 22.1679C12.5128 22.2161 12.4554 22.2577 12.3935 22.2916C12.3841 22.2916 12.2986 22.2155 12.2322 22.1298L12.0898 21.9775ZM9.22341 21.987H9.2424C9.25189 22.006 9.21392 22.0822 9.14748 22.1488L9.05257 22.2821L8.9102 22.1679L8.76783 22.0441L8.99562 22.0156L9.22341 21.987ZM9.44172 22.006L9.59358 22.1393L9.74544 22.2821L9.4607 22.3011L9.17596 22.3106L9.30884 22.1679L9.44172 22.006ZM11.1502 22.006C11.1786 22.006 11.1976 22.0156 11.2261 22.0346C11.2757 22.0815 11.3174 22.1361 11.3495 22.1964C11.3875 22.2726 11.378 22.2916 11.2546 22.2916L11.0173 22.244L10.9034 22.2155L11.0268 22.0917C11.0837 22.0346 11.1217 21.9965 11.1597 21.9965L11.1502 22.006ZM10.3624 22.006C10.4098 22.006 10.4573 22.0346 10.5142 22.1298C10.5807 22.2345 10.5807 22.2345 10.3244 22.2345H10.0681L10.201 22.1108C10.2675 22.0441 10.3244 22.0156 10.3624 22.0156V22.006ZM11.9759 22.0251L12.0898 22.1393C12.2227 22.2631 12.2417 22.3392 12.1468 22.3297L11.881 22.3011L11.6722 22.2821L11.8241 22.1583L11.9759 22.0251ZM8.63495 22.0917C8.65393 22.0917 8.72986 22.1393 8.78681 22.2059L8.90071 22.3297L8.66342 22.3678L8.33122 22.4154C8.26478 22.4344 8.28376 22.3868 8.42613 22.2631C8.52105 22.1679 8.61596 22.0917 8.63495 22.0917ZM8.28376 22.0917H8.32173C8.39766 22.1108 8.39766 22.1298 8.26478 22.2631L8.12241 22.4058L8.07495 22.2821C8.03699 22.1869 8.04648 22.1583 8.1319 22.1203C8.18053 22.1022 8.23189 22.0925 8.28376 22.0917ZM12.6498 22.2631C12.6688 22.2631 12.6688 22.2821 12.6498 22.3202C12.6308 22.3963 12.5454 22.4154 12.5454 22.3392C12.5454 22.3202 12.5739 22.2916 12.6118 22.2726H12.6403L12.6498 22.2631ZM10.6186 22.4154C11.3495 22.4154 12.0898 22.4344 12.2702 22.4534C12.5644 22.4915 12.5929 22.501 12.5929 22.6152C12.5929 22.7485 12.5549 22.758 12.1563 22.6914C12.0424 22.6628 11.5583 22.6248 11.0932 22.5867C10.1906 22.532 9.28477 22.5638 8.38817 22.6819C8.20783 22.7009 8.16037 22.6819 8.16037 22.6248C8.16037 22.501 9.1285 22.4154 10.6186 22.4154ZM9.64104 22.6914H10.1536L10.0397 22.8151C9.8973 22.9674 9.88781 22.9674 9.75493 22.8151L9.64104 22.6914ZM10.3054 22.6914L10.4383 22.8247L10.5712 22.977L10.2959 22.9865H10.0207L10.1631 22.8342L10.2959 22.6914H10.3054ZM10.5048 22.6914H11.0173L10.9034 22.8151C10.7705 22.9674 10.761 22.9674 10.6186 22.8151L10.5048 22.6914ZM9.28985 22.6914C9.30884 22.6914 9.28985 22.739 9.22341 22.8342C9.15697 22.9198 9.09053 22.9865 9.08104 22.9865C9.06206 22.9865 8.99562 22.9294 8.93867 22.8627L8.82477 22.739H8.99562C9.08248 22.7394 9.16889 22.7266 9.25189 22.7009C9.26441 22.6984 9.27733 22.6984 9.28985 22.7009V22.6914ZM9.47968 22.739L9.60307 22.8532L9.74544 22.977L9.49866 22.996L9.22341 23.015L9.35629 22.8723L9.47968 22.739ZM11.1312 22.739L11.2641 22.8913C11.4159 23.0531 11.4064 23.0626 11.0647 22.996L10.9034 22.9674L11.0173 22.8532L11.1312 22.739ZM11.321 22.739H11.5488C11.7956 22.739 11.8241 22.7771 11.6817 22.9103C11.5678 23.0055 11.5678 23.0055 11.4349 22.8627L11.321 22.739ZM8.41664 22.7866C8.53054 22.7866 8.52105 22.7961 8.37868 22.9389C8.27427 23.0436 8.26478 23.0436 8.22682 22.9674C8.19834 22.8723 8.28376 22.7961 8.41664 22.7866ZM12.0993 22.8056C12.1373 22.8056 12.2132 22.8056 12.2891 22.8247L12.5074 22.8627L12.3841 22.977L12.2702 23.0912L12.1657 22.9579L12.0708 22.8056H12.0993ZM8.6824 22.8532C8.71088 22.8532 8.73935 22.8723 8.78681 22.9198C8.88172 23.015 8.88172 23.015 8.80579 23.0531C8.73224 23.0774 8.65542 23.0902 8.578 23.0912H8.42613L8.54952 22.9579C8.61596 22.8913 8.64444 22.8627 8.67291 22.8532H8.6824ZM11.919 22.8818C11.9569 22.8818 11.9854 22.9008 12.0329 22.977L12.1183 23.0912H11.919C11.7861 23.0912 11.7291 23.0721 11.7291 23.0341C11.7481 22.996 11.7956 22.9389 11.8525 22.9103L11.919 22.8818ZM12.5264 23.0055C12.5454 23.0055 12.5454 23.0246 12.5454 23.0531C12.5454 23.1483 12.46 23.2149 12.422 23.1483C12.4125 23.1197 12.4315 23.0721 12.4695 23.0436L12.5264 23.0055ZM10.0681 23.1197C10.8939 23.1197 11.8051 23.1769 12.3461 23.272L12.4979 23.3006V23.7194C12.4979 24.0335 12.479 24.1382 12.4315 24.1382L11.9569 24.0431C10.8594 23.8564 9.7413 23.8244 8.63495 23.9479L8.41664 23.9764L8.3597 23.6242C8.33611 23.5051 8.3234 23.384 8.32173 23.2625C8.32173 23.2625 8.54003 23.2149 8.7963 23.1864C9.10952 23.1388 9.5746 23.1197 10.0681 23.1197Z" fill="black"/>
<path d="M11.7288 20.7399C11.444 20.7399 11.2447 20.9398 11.2447 21.2349C11.2447 21.6918 11.7572 21.9203 12.061 21.5966C12.3647 21.273 12.1559 20.7399 11.7288 20.7399ZM11.7288 20.8542C11.7786 20.8542 11.828 20.864 11.874 20.8831C11.9201 20.9023 11.962 20.9303 11.9972 20.9657C12.0325 21.001 12.0604 21.043 12.0795 21.0892C12.0986 21.1354 12.1084 21.1849 12.1084 21.2349C12.1084 21.5205 11.7952 21.7108 11.5389 21.5871C11.2827 21.4443 11.3016 21.0065 11.5769 20.8922C11.6216 20.871 11.6699 20.8581 11.7193 20.8542H11.7288Z" fill="black"/>
<path d="M9.82098 20.6829C9.53623 20.6829 9.33691 20.8828 9.33691 21.1778C9.33691 21.6347 9.84945 21.8632 10.1532 21.5395C10.4569 21.2159 10.2481 20.6829 9.82098 20.6829ZM9.82098 20.7971C9.87083 20.7971 9.9202 20.8069 9.96626 20.8261C10.0123 20.8452 10.0542 20.8732 10.0894 20.9086C10.1247 20.944 10.1527 20.9859 10.1717 21.0321C10.1908 21.0783 10.2006 21.1278 10.2006 21.1778C10.2006 21.4634 9.88742 21.6538 9.63115 21.53C9.37488 21.3872 9.39386 20.9494 9.66911 20.8352C9.71387 20.8139 9.76212 20.801 9.81148 20.7971H9.82098Z" fill="black"/>
<path d="M8.23566 13.8388C8.19604 13.8412 8.15864 13.8591 8.13063 13.8889C8.10261 13.9188 8.08594 13.9585 8.0838 14.0006C8.0838 14.0474 8.1013 14.0923 8.13245 14.1253C8.1636 14.1584 8.20585 14.177 8.2499 14.177C8.29395 14.177 8.3362 14.1584 8.36735 14.1253C8.3985 14.0923 8.416 14.0474 8.416 14.0006C8.41493 13.9771 8.40931 13.9541 8.3995 13.933C8.38969 13.9119 8.3759 13.8932 8.35898 13.8781C8.34206 13.8629 8.32238 13.8516 8.30117 13.8448C8.27995 13.838 8.25766 13.836 8.23566 13.8388ZM8.24515 13.8959C8.27536 13.8959 8.30433 13.9069 8.32569 13.9266C8.34705 13.9462 8.35905 13.9728 8.35905 14.0006C8.35905 14.0284 8.34705 14.055 8.32569 14.0747C8.30433 14.0943 8.27536 14.1053 8.24515 14.1053C8.21495 14.1053 8.18598 14.0943 8.16462 14.0747C8.14326 14.055 8.13126 14.0284 8.13126 14.0006C8.13126 13.9869 8.1342 13.9733 8.13993 13.9605C8.14565 13.9478 8.15404 13.9363 8.16462 13.9266C8.17519 13.9169 8.18775 13.9091 8.20157 13.9039C8.21539 13.8986 8.2302 13.8959 8.24515 13.8959Z" fill="black"/>
</g>
<defs>
<clipPath id="clip0_0_46">
<rect width="40" height="40" fill="white"/>
</clipPath>
</defs>
</svg>
